<svg height="16" viewBox="0 0 36 16" width="36" xmlns="http://www.w3.org/2000/svg"><path d="m32.8129929 11.2718736h-3.5407436l-.4765302 1.7281264h-2.7375141l2.952685-10h3.9969958l2.9921142 10h-2.6811866zm-.527225-1.94800736-1.2392039-4.33463124-1.2054074 4.33463124zm-13.4566278 3.67613376v-10h4.9320315c.677056 0 1.194142.05726065 1.5478783.16834631.8111153.25881814 1.3552385.78790655 1.6346226 1.58726523.1441983.41914797.2162975 1.05130555.2162975 1.89532753 0 1.01465873-.0788585 1.74301421-.2365753 2.18735685-.3176869.87723317-.9688322 1.38227208-1.9523095 1.51397158-.1160345.0194686-.6083364.0366468-1.4757792.0515346l-.4393541.0148878h-1.5794217v2.5813101zm2.6473901-4.90151168h1.6503943c.5238453-.01946862.8415321-.06069629.9575667-.12368301.1554637-.0881814.2602328-.26339899.312054-.52565277.0337965-.17521759.0506948-.43518094.0506948-.77874484 0-.42372882-.03267-.73751718-.1002629-.94251031-.0946301-.28630325-.3233196-.46152084-.6838153-.52450756-.1708818-.01371049-.3423336-.01867935-.5137063-.01488777h-1.6729253zm-13.47690572-1.90792488h-2.46488922c0-.41227668-.04844161-.6871278-.14194517-.82684379-.14645137-.20842877-.55200902-.31149794-1.21216673-.31149794-.64325948 0-1.07022156.05955108-1.27863312.17865323-.20728502.12024737-.31092753.38135593-.31092753.78447091 0 .36417774.09237702.60352726.27600451.71804856.13293278.08016491.30642133.12940907.52497183.14429684l.49793466.03435639c.66529509.04183704 1.33001708.09261258 1.99399174.15231333.84265866.08589098 1.45099512.31378837 1.83064214.68254695.29740893.28630326.47653022.66422355.53285767 1.12803482.03266993.27828676.04844161.59207513.04844161.94136509 0 .80508477-.07435223 1.39486947-.2253098 1.76935407-.27487796.6848374-.89222681 1.1177279-1.85092001 1.2998168-.40105145.0767293-1.01389411.1145213-1.84190763.1145213-1.37889598 0-2.34096883-.0824553-2.88396545-.2519469-.66466391-.2038479-1.10401802-.6207054-1.31693579-1.2482821-.11941419-.3469996-.17686819-.9276226-.17686819-1.74301424h2.46488922v.20842876c0 .43403578.12279384.71346768.36838153.83600548.16898235.0870362.37401427.1316995.61509575.1374256h.9057454c.4618851 0 .75591439-.0240495.88434097-.0721484.2253098-.0916171.37401427-.2359139.44611341-.4374714.03604957-.1259734.05632745-.2863033.05632745-.48213468 0-.4397618-.15771686-.70774164-.47427713-.80393954-.11828765-.03779203-.66804356-.09161704-1.6481412-.15803939-.7863312-.05726065-1.33270747-.11223088-1.6391288-.16491068-.80660909-.15345854-1.34509951-.46953733-1.61209162-.94823637-.2365753-.40655062-.35486294-1.02153-.35486294-1.84493816 0-.62757672.06533984-1.13032524.19151333-1.50824553.12730004-.37792029.33233196-.66536876.61734886-.86120018.41344348-.30233624.94630116-.47869904 1.59294029-.53137884.59575847-.05045665 1.19339502-.07452891 1.79121292-.07214842 1.03304543 0 1.76980848.05955108 2.21028914.17979844 1.07247466.29317453 1.60645888 1.11314705 1.60645888 2.45991755 0 .11108566-.00675929.27485112-.02253098.49702244zm7.17499062-1.78309665c-1.2468957.00109571-2.3985603.67813711-3.0214044 1.77622538h5.4716485l-.6567781 1.43151626h-5.2699962c-.0287721.29596617-.0219627.59439361.0202778.88868529h4.8430342l-.6579046 1.43266148h-3.6466391c.6434892 1.0020109 1.7406284 1.6066069 2.9177619 1.6078791 1.004247.0004029 1.9596385-.4405292 2.620353-1.209345v1.7556116c-.7942171.5382501-1.7551634.8531837-2.7893354.8531837-2.0536988 0-3.816748-1.2402657-4.5692827-3.00847461h-1.74277133l.65677807-1.43151627h.71986486c-.028764-.29540684-.0310264-.59286162-.0067593-.88868529h-1.43184382l.65790461-1.43151626h1.11303041c.7322569-1.8128722 2.5167105-3.09436556 4.6030792-3.09436556 1.2813447-.00331546 2.5151444.49305232 3.44724 1.38685296l-.5711603 1.24370133c-.6410064-.8005039-1.6143448-1.31241411-2.7070973-1.31241411z" fill-rule="evenodd"/></svg>