<svg xmlns="http://www.w3.org/2000/svg" width="32" height="32" enable-background="new 0 0 32 32" viewBox="0 0 32 32"><path fill="#b0d7ff" d="M30.5758,10.9808v11.9c0,2.34-1.75,4.24-3.9,4.24H5.6858c-2.15,0-3.89-1.9-3.89-4.24v-11.9
		c0-2.34,1.74-4.25,3.89-4.25h20.9901C28.8258,6.7308,30.5758,8.6408,30.5758,10.9808z"/><rect width="24.78" height="2" x="3.794" y="11.021" fill="#3272b2"/><rect width="24.78" height="2" x="3.794" y="15.021" fill="#3272b2"/><rect width="24.78" height="2" x="3.794" y="13.021" fill="#61b0ff"/><path fill="#3272b2" d="M10.1041 20.0208c0 .55-.45 1-1 1h-3c-.55 0-1-.45-1-1 0-.55.45-1 1-1h3C9.6541 19.0208 10.1041 19.4708 10.1041 20.0208zM15.6942 20.8108c.3899.39.3899 1.03 0 1.42-.19.19-.4501.29-.7101.29-.25 0-.51-.1-.7-.29l-.36-.36-.3599.36c-.2001.19-.4501.29-.7101.29s-.51-.1-.71-.29c-.3899-.39-.3899-1.03 0-1.42l.3601-.36-.3601-.36c-.3899-.39-.3899-1.02 0-1.41.39-.39 1.03-.39 1.4201 0l.3599.36.36-.36c.39-.39 1.02-.39 1.4101 0 .3899.39.3899 1.02 0 1.41l-.3601.36L15.6942 20.8108zM20.8142 20.8108c.3899.39.3899 1.03 0 1.42-.19.19-.4501.29-.7101.29-.25 0-.51-.1-.7-.29l-.36-.36-.3599.36c-.2001.19-.4501.29-.7101.29-.25 0-.51-.1-.71-.29-.3899-.39-.3899-1.03 0-1.42l.3601-.36-.3601-.36c-.3899-.39-.3899-1.02 0-1.41.39-.39 1.03-.39 1.4201 0l.3599.36.36-.36c.39-.39 1.02-.39 1.4101 0 .3899.39.3899 1.02 0 1.41l-.3601.36L20.8142 20.8108zM25.9342 20.8108c.3899.39.3899 1.03 0 1.42-.1901.19-.4501.29-.7101.29-.25 0-.51-.1-.7-.29l-.36-.36-.36.36c-.2.19-.45.29-.71.29-.25 0-.51-.1-.7099-.29-.3901-.39-.3901-1.03 0-1.42l.3599-.36-.3599-.36c-.3901-.39-.3901-1.02 0-1.41.3899-.39 1.0299-.39 1.4199 0l.36.36.36-.36c.39-.39 1.02-.39 1.4101 0 .3899.39.3899 1.02 0 1.41l-.3601.36L25.9342 20.8108z"/></svg>